<svg aria-hidden="true" style="position: absolute; width: 0; height: 0; overflow: hidden;" version="1.1" xmlns="http://www.w3.org/2000/svg" xmlns:xlink="http://www.w3.org/1999/xlink">
<defs>
<symbol id="icon-facebook_2424" viewBox="0 0 32 32">
<path fill="" style="" d="M19.52 4.64c0.24 0 0.48 0 0.96 0v3.6c-0.24 0-0.72 0-1.2 0s-0.96 0-1.2 0.24c-0.24 0.24-0.24 0.48-0.24 1.040 0 0.48 0 0.8 0 1.28h2.64v3.040h-2.64v13.2h-4.080v-13.28h-2.16v-3.040h2.16v-1.040c0-1.76 0.24-3.040 0.72-3.6 0.72-1.040 2.16-1.52 4.32-1.52 0.24 0.080 0.48 0.080 0.72 0.080z"></path>
</symbol>
<symbol id="icon-chevron-left_1818" viewBox="0 0 32 32">
<path fill="none" stroke="" style="stroke: var(--color1, #fff)" stroke-linejoin="round" stroke-linecap="round" stroke-miterlimit="4" stroke-width="1.7778" d="M20 24l-8-8 8-8"></path>
</symbol>
<symbol id="icon-chevron-left_2424" viewBox="0 0 32 32">
<path fill="none" stroke="" style="stroke: var(--color1, #fff)" stroke-linejoin="round" stroke-linecap="round" stroke-miterlimit="4" stroke-width="1.3333" d="M20 24l-8-8 8-8"></path>
</symbol>
<symbol id="icon-chevron-right_1818" viewBox="0 0 32 32">
<path fill="none" stroke="#fff" style="stroke: var(--color1, #fff)" stroke-linejoin="round" stroke-linecap="round" stroke-miterlimit="4" stroke-width="1.7778" d="M12 24l8-8-8-8"></path>
</symbol>
<symbol id="icon-chevron-right_2424" viewBox="0 0 32 32">
<path fill="none" stroke="#fff" style="stroke: var(--color1, #fff)" stroke-linejoin="round" stroke-linecap="round" stroke-miterlimit="4" stroke-width="1.3333" d="M12 24l8-8-8-8"></path>
</symbol>
<symbol id="icon-facebook_24241" viewBox="0 0 32 32">
<path fill="" style="fill: var(--color1, #fff)" d="M19.52 4.64c0.24 0 0.48 0 0.96 0v3.6c-0.24 0-0.72 0-1.2 0s-0.96 0-1.2 0.24c-0.24 0.24-0.24 0.48-0.24 1.040 0 0.48 0 0.8 0 1.28h2.64v3.040h-2.64v13.2h-4.080v-13.28h-2.16v-3.040h2.16v-1.040c0-1.76 0.24-3.040 0.72-3.6 0.72-1.040 2.16-1.52 4.32-1.52 0.24 0.080 0.48 0.080 0.72 0.080z"></path>
</symbol>
<symbol id="icon-heart" viewBox="0 0 35 32">
<path fill="none" stroke="#fff" style="stroke: var(--color1, #fff)" stroke-linejoin="round" stroke-linecap="round" stroke-miterlimit="4" stroke-width="2.9091" d="M30.313 5.251c-0.743-0.743-1.625-1.333-2.596-1.735s-2.011-0.609-3.062-0.609-2.091 0.207-3.062 0.609c-0.971 0.402-1.853 0.992-2.596 1.735l-1.542 1.542-1.542-1.542c-1.501-1.501-3.536-2.344-5.658-2.344s-4.158 0.843-5.658 2.344c-1.501 1.501-2.344 3.536-2.344 5.658s0.843 4.158 2.344 5.658l12.858 12.858 12.858-12.858c0.743-0.743 1.333-1.625 1.735-2.596s0.609-2.011 0.609-3.062-0.207-2.091-0.609-3.062c-0.402-0.971-0.992-1.853-1.735-2.596v0z"></path>
</symbol>
<symbol id="icon-instagram_2424" viewBox="0 0 32 32">
<path fill="" style="fill: var(--color1, #fff)" opacity="0.8" d="M28.717 10.756c-0.016-1.074-0.215-2.14-0.596-3.145-0.667-1.716-2.024-3.073-3.743-3.737-0.994-0.373-2.044-0.573-3.108-0.596-1.367-0.061-1.801-0.078-5.273-0.078s-3.916 0-5.274 0.078c-1.062 0.023-2.112 0.223-3.106 0.596-1.719 0.664-3.078 2.021-3.743 3.737-0.374 0.992-0.576 2.041-0.596 3.101-0.061 1.367-0.080 1.8-0.080 5.265s0 3.909 0.080 5.265c0.021 1.061 0.222 2.109 0.596 3.104 0.667 1.715 2.024 3.071 3.744 3.735 0.989 0.386 2.040 0.605 3.106 0.639 1.369 0.061 1.803 0.079 5.274 0.079s3.917 0 5.274-0.079c1.062-0.021 2.112-0.221 3.108-0.595 1.719-0.666 3.076-2.022 3.743-3.737 0.374-0.993 0.574-2.041 0.596-3.104 0.061-1.365 0.080-1.798 0.080-5.265-0.003-3.466-0.003-3.906-0.082-5.264zM15.99 22.531c-3.631 0-6.572-2.936-6.572-6.561s2.941-6.561 6.572-6.561c3.628 0 6.572 2.936 6.572 6.561s-2.944 6.561-6.572 6.561zM22.823 10.696c-0.849 0-1.532-0.684-1.532-1.53s0.684-1.53 1.532-1.53c0.846 0 1.531 0.684 1.531 1.53s-0.685 1.53-1.531 1.53z"></path>
<path fill="" style="fill: var(--color1, #fff)" opacity="0.8" d="M15.992 19.976c2.211 0 4.004-1.793 4.004-4.004s-1.793-4.004-4.004-4.004c-2.211 0-4.004 1.793-4.004 4.004s1.793 4.004 4.004 4.004z"></path>
</symbol>
<symbol id="icon-instagram_2828" viewBox="0 0 32 32">
<path fill="" style="fill: var(--color1, #fff)" opacity="0.8" d="M28.718 10.756c-0.016-1.074-0.215-2.14-0.596-3.145-0.667-1.716-2.024-3.073-3.743-3.737-0.994-0.373-2.044-0.573-3.108-0.596-1.368-0.061-1.801-0.078-5.273-0.078s-3.916 0-5.274 0.078c-1.062 0.023-2.113 0.223-3.106 0.596-1.719 0.664-3.078 2.021-3.743 3.737-0.374 0.992-0.576 2.041-0.596 3.101-0.061 1.367-0.080 1.8-0.080 5.265s0 3.909 0.080 5.265c0.021 1.062 0.222 2.109 0.596 3.104 0.667 1.714 2.024 3.071 3.744 3.735 0.989 0.386 2.040 0.605 3.106 0.639 1.369 0.061 1.803 0.080 5.274 0.080s3.916 0 5.274-0.080c1.062-0.021 2.112-0.221 3.108-0.595 1.719-0.666 3.076-2.022 3.743-3.737 0.374-0.994 0.574-2.041 0.596-3.104 0.061-1.365 0.080-1.798 0.080-5.265-0.003-3.466-0.003-3.906-0.082-5.264zM15.99 22.531c-3.631 0-6.572-2.936-6.572-6.561s2.941-6.561 6.572-6.561c3.628 0 6.572 2.936 6.572 6.561s-2.944 6.561-6.572 6.561zM22.824 10.696c-0.849 0-1.532-0.684-1.532-1.53s0.684-1.53 1.532-1.53c0.846 0 1.531 0.684 1.531 1.53s-0.685 1.53-1.531 1.53z"></path>
<path fill="" style="fill: var(--color1, #fff)" opacity="0.8" d="M15.992 19.976c2.211 0 4.004-1.793 4.004-4.004s-1.793-4.004-4.004-4.004c-2.211 0-4.004 1.793-4.004 4.004s1.793 4.004 4.004 4.004z"></path>
</symbol>
<symbol id="icon-mob_menu-left" viewBox="0 0 32 32">
<path fill="" style="fill: var(--color1, #fff)" d="M2.667 7.993c0-0.733 0.595-1.327 1.327-1.327h10.68c0.352 0 0.689 0.14 0.938 0.389s0.389 0.586 0.389 0.938c0 0.352-0.14 0.689-0.389 0.938s-0.586 0.389-0.938 0.389h-10.68c-0.352 0-0.689-0.14-0.938-0.389s-0.389-0.586-0.389-0.938zM2.667 16c0-0.733 0.595-1.327 1.327-1.327h24.013c0.352 0 0.689 0.14 0.938 0.389s0.389 0.586 0.389 0.938c0 0.352-0.14 0.689-0.389 0.938s-0.586 0.389-0.938 0.389h-24.013c-0.352 0-0.689-0.14-0.938-0.389s-0.389-0.586-0.389-0.938zM3.993 22.68c-0.352 0-0.689 0.14-0.938 0.389s-0.389 0.586-0.389 0.938c0 0.352 0.14 0.689 0.389 0.938s0.586 0.389 0.938 0.389h16.013c0.352 0 0.689-0.14 0.938-0.389s0.389-0.586 0.389-0.938c0-0.352-0.14-0.689-0.389-0.938s-0.586-0.389-0.938-0.389h-16.013z"></path>
</symbol>
<symbol id="icon-watch_logo_big" viewBox="0 0 28 32">
<path fill="" style="fill: var(--color2, #000)" d="M21.073 16.002l-3.834-8.782-0.836-0.58-0.98-0.312-1.326-0.357-1.557 0.669-1.038 0.58 3.92 8.782h5.65z"></path>
<path fill="" style="fill: var(--color2, #000)" d="M7.314 13.065l3.834 8.803 0.836 0.581 0.98 0.313 1.326 0.357 1.557-0.67 1.038-0.581-3.921-8.803h-5.65z"></path>
<path fill="" style="fill: var(--color1, #fff)" d="M11.298 7.335l-5.952 8.604 5.952 0.064 4.303-8.667c0.302-0.887 1.247-0.369 1.682 0-1.858-3.405-4.764-1.419-5.985 0z"></path>
<path fill="" style="fill: var(--color1, #fff)" d="M17.066 21.756l5.952-8.604-5.952-0.064-4.303 8.667c-0.302 0.887-1.247 0.369-1.682 0 1.858 3.405 4.764 1.419 5.985 0z"></path>
</symbol>
<symbol id="icon-watch_logo_small" viewBox="0 0 30 32">
<path fill="" style="fill: var(--color2, #000)" d="M20.989 15.674l-3.46-7.927-0.755-0.523-0.885-0.282-1.197-0.322-1.405 0.604-0.937 0.523 3.538 7.927h5.1z"></path>
<path fill="" style="fill: var(--color2, #000)" d="M8.571 13.023l3.46 7.945 0.755 0.524 0.885 0.282 1.197 0.323 1.405-0.605 0.937-0.524-3.538-7.945h-5.1z"></path>
<path fill="" style="fill: var(--color1, #fff)" d="M12.166 7.851l-5.372 7.765 5.372 0.058 3.883-7.823c0.273-0.8 1.126-0.333 1.518 0-1.677-3.073-4.3-1.28-5.402 0z"></path>
<path fill="" style="fill: var(--color1, #fff)" d="M17.372 20.867l5.372-7.765-5.372-0.058-3.883 7.823c-0.273 0.8-1.126 0.333-1.518 0 1.677 3.073 4.3 1.28 5.402 0z"></path>
</symbol>
<symbol id="icon-watchshop_logo" viewBox="0 0 76 32">
<path fill="" style="fill: var(--color2, #000)" d="M18.821 14.656l-2.173-4.978-0.474-0.329-0.556-0.177-0.752-0.202-0.882 0.379-0.588 0.329 2.222 4.978h3.202z"></path>
<path fill="" style="fill: var(--color2, #000)" d="M11.023 12.992l2.173 4.989 0.474 0.329 0.556 0.177 0.752 0.203 0.882-0.38 0.588-0.329-2.222-4.989h-3.202z"></path>
<path fill="" style="fill: var(--color1, #fff)" d="M13.28 9.743l-3.374 4.876 3.374 0.036 2.439-4.912c0.171-0.503 0.707-0.209 0.953 0-1.053-1.93-2.7-0.804-3.392 0z"></path>
<path fill="" style="fill: var(--color1, #fff)" d="M16.55 17.918l3.374-4.876-3.374-0.036-2.439 4.912c-0.171 0.503-0.707 0.209-0.953 0 1.053 1.93 2.7 0.804 3.392 0z"></path>
<path fill="" style="fill: var(--color1, #fff)" d="M24.568 16.336c-0.133 0-0.263-0.015-0.39-0.045s-0.243-0.083-0.346-0.159c-0.1-0.079-0.18-0.188-0.24-0.329-0.060-0.144-0.090-0.328-0.090-0.553 0-0.057 0-0.115 0-0.175 0-0.062 0-0.127 0-0.195v-2.319h-1.054v-0.61h0.675c0.092 0 0.164-0.003 0.216-0.008 0.052-0.008 0.088-0.026 0.11-0.053 0.024-0.030 0.039-0.075 0.045-0.134 0.005-0.062 0.008-0.148 0.008-0.256v-0.98h0.696v1.432h1.351v0.61h-1.351v2.095c0 0.060 0 0.118 0 0.175s0 0.11 0 0.159c0 0.23 0.027 0.411 0.081 0.541 0.057 0.13 0.183 0.195 0.378 0.195 0.079 0 0.153-0.007 0.224-0.020s0.123-0.027 0.159-0.041v0.602c-0.046 0.016-0.111 0.031-0.195 0.045-0.081 0.016-0.174 0.024-0.277 0.024zM29.286 16.271v-1.607c0-0.076 0-0.165 0-0.268 0-0.106 0-0.212 0-0.317 0-0.108 0-0.201 0-0.277 0-0.415-0.090-0.728-0.268-0.94-0.176-0.212-0.457-0.317-0.842-0.317-0.258 0-0.484 0.050-0.679 0.15-0.193 0.1-0.343 0.237-0.452 0.411s-0.163 0.37-0.163 0.59l-0.439-0.134c0-0.309 0.080-0.59 0.24-0.842 0.163-0.255 0.384-0.457 0.663-0.606 0.282-0.152 0.601-0.228 0.956-0.228 0.518 0 0.926 0.156 1.224 0.468 0.301 0.312 0.452 0.743 0.452 1.294 0 0.144 0 0.309 0 0.496s0 0.384 0 0.59v1.538h-0.692zM26.191 16.271v-6.358h0.692v6.358h-0.692zM31.16 14.388v-0.618h3.34l-0.122 0.203c0-0.016 0-0.031 0-0.045 0-0.016 0-0.031 0-0.045 0-0.249-0.053-0.477-0.159-0.683-0.103-0.209-0.258-0.376-0.464-0.5s-0.461-0.187-0.765-0.187c-0.306 0-0.576 0.065-0.809 0.195s-0.415 0.315-0.545 0.553c-0.13 0.236-0.195 0.518-0.195 0.846 0 0.334 0.062 0.621 0.187 0.862 0.127 0.241 0.308 0.427 0.541 0.557s0.51 0.195 0.83 0.195c0.228 0 0.426-0.023 0.594-0.069 0.168-0.049 0.306-0.113 0.415-0.191 0.111-0.081 0.195-0.169 0.252-0.264s0.091-0.19 0.102-0.285h0.692c-0.014 0.174-0.068 0.346-0.163 0.517s-0.229 0.327-0.403 0.468c-0.174 0.138-0.386 0.25-0.639 0.334s-0.542 0.126-0.87 0.126c-0.434 0-0.816-0.095-1.147-0.285s-0.591-0.453-0.781-0.789c-0.187-0.336-0.281-0.723-0.281-1.159 0-0.442 0.095-0.83 0.285-1.163 0.19-0.336 0.452-0.599 0.785-0.789s0.715-0.285 1.143-0.285c0.437 0 0.815 0.095 1.135 0.285s0.567 0.45 0.74 0.781c0.174 0.328 0.26 0.702 0.26 1.123 0 0.043-0.001 0.1-0.004 0.171s-0.007 0.118-0.012 0.142h-3.942zM39.31 16.271l-1.208-4.32h0.614l1.143 4.015h-0.126l0.757-4.015h0.72l-0.932 4.32h-0.968zM36.39 16.271l-0.94-4.32h0.72l0.765 4.015h-0.126l1.131-4.015h0.614l-1.192 4.32h-0.972zM43.263 16.353c-0.328 0-0.616-0.052-0.862-0.155-0.244-0.103-0.434-0.251-0.569-0.443-0.136-0.195-0.203-0.428-0.203-0.7 0-0.282 0.073-0.517 0.22-0.704 0.146-0.19 0.353-0.338 0.618-0.443s0.575-0.176 0.927-0.212c0.532-0.054 0.91-0.107 1.135-0.159 0.225-0.054 0.338-0.141 0.338-0.26 0-0.003 0-0.004 0-0.004 0-0.003 0-0.005 0-0.008 0-0.249-0.102-0.435-0.305-0.557-0.203-0.125-0.498-0.187-0.883-0.187-0.401 0-0.713 0.070-0.936 0.212-0.222 0.138-0.334 0.363-0.334 0.675h-0.683c0-0.323 0.083-0.597 0.248-0.822 0.165-0.228 0.395-0.401 0.687-0.521 0.296-0.119 0.636-0.179 1.021-0.179 0.353 0 0.67 0.054 0.952 0.163 0.285 0.106 0.51 0.264 0.675 0.476 0.168 0.209 0.252 0.468 0.252 0.777 0 0.057 0 0.114 0 0.171 0 0.054 0 0.11 0 0.167v1.818c0 0.095 0.004 0.187 0.012 0.277s0.022 0.168 0.041 0.236c0.024 0.081 0.052 0.148 0.081 0.199 0.030 0.049 0.054 0.083 0.073 0.102h-0.696c-0.014-0.014-0.034-0.045-0.061-0.094-0.027-0.052-0.053-0.111-0.077-0.179-0.019-0.054-0.034-0.122-0.045-0.203-0.011-0.084-0.016-0.171-0.016-0.26l0.114 0.077c-0.084 0.146-0.207 0.275-0.37 0.386-0.16 0.111-0.354 0.198-0.582 0.26s-0.485 0.094-0.773 0.094zM43.373 15.73c0.279 0 0.532-0.042 0.757-0.126 0.225-0.087 0.404-0.214 0.537-0.382s0.199-0.377 0.199-0.626v-0.858l0.155 0.26c-0.174 0.068-0.391 0.123-0.651 0.167-0.258 0.041-0.527 0.075-0.809 0.102-0.41 0.038-0.719 0.11-0.927 0.216-0.206 0.106-0.309 0.283-0.309 0.533 0 0.236 0.085 0.415 0.256 0.537 0.171 0.119 0.435 0.179 0.793 0.179zM48.056 16.336c-0.133 0-0.263-0.015-0.391-0.045s-0.243-0.083-0.346-0.159c-0.1-0.079-0.18-0.188-0.24-0.329-0.060-0.144-0.090-0.328-0.090-0.553 0-0.057 0-0.115 0-0.175 0-0.062 0-0.127 0-0.195v-2.319h-1.054v-0.61h0.675c0.092 0 0.164-0.003 0.216-0.008 0.052-0.008 0.088-0.026 0.11-0.053 0.024-0.030 0.039-0.075 0.045-0.134 0.005-0.062 0.008-0.148 0.008-0.256v-0.98h0.696v1.432h1.35v0.61h-1.35v2.095c0 0.060 0 0.118 0 0.175s0 0.11 0 0.159c0 0.23 0.027 0.411 0.081 0.541 0.057 0.13 0.183 0.195 0.378 0.195 0.079 0 0.153-0.007 0.224-0.020s0.123-0.027 0.159-0.041v0.602c-0.046 0.016-0.111 0.031-0.195 0.045-0.081 0.016-0.174 0.024-0.277 0.024zM51.586 16.353c-0.412 0-0.786-0.090-1.123-0.268-0.336-0.182-0.603-0.441-0.801-0.777-0.195-0.336-0.293-0.736-0.293-1.2s0.098-0.861 0.293-1.192c0.198-0.334 0.465-0.588 0.801-0.765s0.711-0.264 1.123-0.264c0.315 0 0.595 0.049 0.842 0.146 0.247 0.095 0.456 0.222 0.626 0.382s0.301 0.336 0.391 0.529c0.092 0.19 0.138 0.38 0.138 0.569 0 0.003 0 0.007 0 0.012s0 0.011 0 0.016h-0.687c0-0.014-0.001-0.028-0.004-0.045-0.003-0.019-0.005-0.038-0.008-0.057-0.022-0.182-0.091-0.34-0.207-0.476-0.117-0.138-0.268-0.247-0.456-0.325s-0.4-0.118-0.639-0.118c-0.268 0-0.518 0.058-0.748 0.175-0.228 0.114-0.412 0.289-0.553 0.525-0.138 0.233-0.207 0.529-0.207 0.887 0 0.355 0.069 0.652 0.207 0.891s0.321 0.419 0.549 0.541c0.23 0.119 0.481 0.179 0.753 0.179 0.293 0 0.534-0.046 0.724-0.138s0.332-0.214 0.427-0.366c0.098-0.155 0.152-0.32 0.163-0.496h0.687c0 0.195-0.043 0.39-0.13 0.586-0.087 0.193-0.214 0.369-0.382 0.529-0.168 0.157-0.377 0.283-0.626 0.378-0.247 0.095-0.533 0.142-0.858 0.142zM57.512 16.271v-1.607c0-0.076 0-0.165 0-0.268 0-0.106 0-0.212 0-0.317 0-0.108 0-0.201 0-0.277 0-0.415-0.090-0.728-0.268-0.94-0.176-0.212-0.457-0.317-0.842-0.317-0.258 0-0.484 0.050-0.68 0.15-0.193 0.1-0.343 0.237-0.451 0.411s-0.163 0.37-0.163 0.59l-0.439-0.134c0-0.309 0.080-0.59 0.24-0.842 0.163-0.255 0.384-0.457 0.663-0.606 0.282-0.152 0.6-0.228 0.956-0.228 0.518 0 0.926 0.156 1.225 0.468 0.301 0.312 0.451 0.743 0.451 1.294 0 0.144 0 0.309 0 0.496s0 0.384 0 0.59v1.538h-0.692zM54.417 16.271v-6.358h0.692v6.358h-0.692zM60.814 16.353c-0.26 0-0.502-0.027-0.724-0.081-0.22-0.057-0.412-0.138-0.578-0.244-0.163-0.108-0.29-0.241-0.382-0.399-0.090-0.157-0.135-0.338-0.135-0.541 0-0.022 0-0.043 0-0.065 0-0.024 0-0.045 0-0.061h0.696c0 0.016 0 0.030 0 0.041s0 0.027 0 0.049c0 0.22 0.101 0.388 0.305 0.504 0.203 0.114 0.482 0.171 0.834 0.171 0.217 0 0.411-0.022 0.581-0.065s0.305-0.11 0.403-0.199c0.1-0.089 0.15-0.202 0.15-0.338 0-0.225-0.106-0.385-0.317-0.48-0.209-0.098-0.522-0.182-0.939-0.252-0.22-0.038-0.428-0.087-0.626-0.146-0.198-0.062-0.374-0.142-0.529-0.24-0.152-0.098-0.273-0.218-0.362-0.362-0.087-0.146-0.13-0.321-0.13-0.525 0-0.263 0.078-0.485 0.232-0.667 0.157-0.184 0.369-0.324 0.635-0.419 0.266-0.098 0.561-0.146 0.887-0.146 0.315 0 0.605 0.050 0.87 0.15s0.478 0.247 0.638 0.439c0.163 0.19 0.244 0.424 0.244 0.704 0 0.011 0 0.024 0 0.041 0 0.014 0 0.027 0 0.041h-0.692c0-0.014 0-0.024 0-0.033s0-0.018 0-0.028c0-0.157-0.050-0.286-0.15-0.386-0.1-0.103-0.23-0.179-0.391-0.228-0.16-0.052-0.331-0.077-0.513-0.077-0.171 0-0.339 0.019-0.504 0.057-0.165 0.035-0.303 0.095-0.411 0.179s-0.163 0.199-0.163 0.346c0 0.146 0.050 0.264 0.151 0.354 0.103 0.087 0.247 0.159 0.431 0.216 0.187 0.054 0.407 0.104 0.659 0.15 0.225 0.041 0.438 0.092 0.638 0.155 0.201 0.060 0.377 0.137 0.529 0.232 0.155 0.095 0.276 0.216 0.362 0.362 0.090 0.144 0.134 0.32 0.134 0.529 0 0.212-0.049 0.396-0.146 0.553-0.095 0.157-0.228 0.289-0.399 0.395-0.168 0.106-0.363 0.184-0.586 0.236-0.22 0.054-0.454 0.081-0.703 0.081zM63.478 18.049v-6.098h0.692v6.098h-0.692zM65.589 16.353c-0.334 0-0.645-0.081-0.936-0.244-0.29-0.165-0.526-0.392-0.708-0.679-0.179-0.287-0.268-0.616-0.268-0.984 0-0.008 0-0.015 0-0.020s0-0.012 0-0.020l0.496-0.012c0 0.005 0 0.012 0 0.020 0 0.005 0 0.011 0 0.016 0 0.233 0.061 0.446 0.183 0.639 0.125 0.193 0.287 0.346 0.488 0.46s0.416 0.171 0.647 0.171c0.382 0 0.7-0.13 0.952-0.39 0.255-0.263 0.382-0.663 0.382-1.2 0-0.54-0.126-0.938-0.378-1.196-0.252-0.26-0.571-0.39-0.956-0.39-0.231 0-0.446 0.057-0.647 0.171-0.201 0.111-0.363 0.262-0.488 0.452-0.122 0.19-0.183 0.403-0.183 0.639l-0.496-0.016c0-0.372 0.090-0.698 0.268-0.98 0.182-0.282 0.418-0.502 0.708-0.659 0.29-0.16 0.602-0.24 0.936-0.24 0.35 0 0.673 0.087 0.968 0.26 0.296 0.171 0.533 0.422 0.712 0.753s0.268 0.734 0.268 1.208c0 0.483-0.088 0.892-0.265 1.228-0.176 0.334-0.412 0.587-0.708 0.761-0.296 0.171-0.621 0.256-0.976 0.256zM70.421 16.348c-0.434 0-0.818-0.096-1.151-0.289-0.331-0.195-0.591-0.461-0.781-0.797-0.187-0.339-0.28-0.724-0.28-1.155s0.093-0.814 0.28-1.147c0.19-0.334 0.45-0.595 0.781-0.785 0.334-0.19 0.718-0.285 1.151-0.285s0.816 0.095 1.147 0.285c0.334 0.19 0.594 0.452 0.781 0.785 0.19 0.334 0.285 0.716 0.285 1.147s-0.095 0.816-0.285 1.155c-0.187 0.336-0.447 0.602-0.781 0.797-0.331 0.193-0.713 0.289-1.147 0.289zM70.421 15.714c0.298 0 0.561-0.066 0.789-0.199s0.405-0.32 0.533-0.561c0.13-0.241 0.195-0.523 0.195-0.846s-0.065-0.602-0.195-0.838c-0.127-0.239-0.305-0.422-0.533-0.549-0.228-0.13-0.491-0.195-0.789-0.195-0.296 0-0.559 0.065-0.789 0.195-0.228 0.127-0.407 0.31-0.537 0.549-0.127 0.236-0.191 0.515-0.191 0.838s0.064 0.605 0.191 0.846c0.13 0.241 0.309 0.428 0.537 0.561 0.231 0.133 0.494 0.199 0.789 0.199zM75.090 16.336c-0.133 0-0.263-0.015-0.391-0.045s-0.242-0.083-0.346-0.159c-0.1-0.079-0.181-0.188-0.24-0.329-0.060-0.144-0.090-0.328-0.090-0.553 0-0.057 0-0.115 0-0.175 0-0.062 0-0.127 0-0.195v-2.319h-1.053v-0.61h0.675c0.092 0 0.164-0.003 0.215-0.008 0.052-0.008 0.088-0.026 0.11-0.053 0.024-0.030 0.039-0.075 0.044-0.134 0.005-0.062 0.008-0.148 0.008-0.256v-0.98h0.696v1.432h1.35v0.61h-1.35v2.095c0 0.060 0 0.118 0 0.175s0 0.11 0 0.159c0 0.23 0.027 0.411 0.081 0.541 0.057 0.13 0.183 0.195 0.378 0.195 0.079 0 0.153-0.007 0.224-0.020s0.123-0.027 0.158-0.041v0.602c-0.046 0.016-0.111 0.031-0.195 0.045-0.081 0.016-0.174 0.024-0.277 0.024z"></path>
</symbol>
<symbol id="icon-watchshop_mob_logo" viewBox="0 0 69 32">
<path fill="" style="" d="M18.552 14.294l-1.749-4.007-0.381-0.264-0.447-0.142-0.605-0.163-0.71 0.305-0.474 0.264 1.789 4.007h2.578z"></path>
<path fill="" style="" d="M12.274 12.954l1.749 4.017 0.381 0.265 0.447 0.143 0.605 0.163 0.71-0.306 0.474-0.265-1.789-4.017h-2.578z"></path>
<path fill="" style="" d="M14.091 10.339l-2.716 3.926 2.716 0.029 1.963-3.955c0.138-0.405 0.569-0.169 0.768 0-0.848-1.554-2.174-0.647-2.731 0z"></path>
<path fill="" style="" d="M16.724 16.92l2.716-3.926-2.716-0.029-1.963 3.955c-0.138 0.405-0.569 0.169-0.768 0 0.848 1.554 2.174 0.647 2.731 0z"></path>
<path fill="" style="" d="M23.963 16.057c-0.116 0-0.23-0.013-0.341-0.039s-0.212-0.072-0.302-0.139c-0.088-0.069-0.158-0.165-0.21-0.288-0.052-0.126-0.078-0.287-0.078-0.484 0-0.050 0-0.101 0-0.153 0-0.055 0-0.111 0-0.171v-2.027h-0.921v-0.533h0.59c0.081 0 0.143-0.002 0.188-0.007 0.045-0.007 0.077-0.023 0.096-0.046 0.021-0.026 0.034-0.065 0.039-0.117 0.005-0.055 0.007-0.129 0.007-0.224v-0.857h0.608v1.252h1.18v0.533h-1.18v1.831c0 0.052 0 0.103 0 0.153s0 0.096 0 0.139c0 0.201 0.024 0.359 0.071 0.473 0.050 0.114 0.16 0.171 0.331 0.171 0.069 0 0.134-0.006 0.196-0.018s0.108-0.024 0.139-0.036v0.526c-0.040 0.014-0.097 0.027-0.171 0.039-0.071 0.014-0.152 0.021-0.242 0.021zM28.087 16v-1.404c0-0.066 0-0.145 0-0.235 0-0.092 0-0.185 0-0.277 0-0.095 0-0.175 0-0.242 0-0.363-0.078-0.636-0.235-0.821-0.154-0.185-0.399-0.277-0.736-0.277-0.225 0-0.423 0.044-0.594 0.132-0.168 0.088-0.3 0.207-0.395 0.359s-0.142 0.324-0.142 0.516l-0.384-0.117c0-0.27 0.070-0.516 0.21-0.736 0.142-0.223 0.335-0.399 0.58-0.53 0.247-0.133 0.525-0.199 0.836-0.199 0.453 0 0.809 0.136 1.070 0.409 0.263 0.273 0.395 0.649 0.395 1.131 0 0.126 0 0.27 0 0.434s0 0.335 0 0.516v1.344h-0.604zM25.382 16v-5.557h0.604v5.557h-0.604zM29.725 14.354v-0.54h2.919l-0.107 0.178c0-0.014 0-0.027 0-0.039 0-0.014 0-0.027 0-0.039 0-0.218-0.046-0.417-0.139-0.597-0.090-0.183-0.225-0.328-0.405-0.437s-0.403-0.164-0.668-0.164c-0.268 0-0.504 0.057-0.708 0.171s-0.363 0.275-0.476 0.484c-0.114 0.206-0.171 0.453-0.171 0.74 0 0.292 0.055 0.543 0.164 0.754 0.111 0.211 0.269 0.373 0.473 0.487s0.446 0.171 0.725 0.171c0.199 0 0.372-0.020 0.519-0.060 0.147-0.043 0.268-0.098 0.363-0.167 0.097-0.071 0.171-0.148 0.22-0.231s0.079-0.166 0.089-0.249h0.604c-0.012 0.152-0.059 0.302-0.142 0.452s-0.2 0.286-0.352 0.409c-0.152 0.121-0.338 0.218-0.558 0.292s-0.474 0.11-0.761 0.11c-0.379 0-0.713-0.083-1.003-0.249s-0.517-0.396-0.683-0.69c-0.164-0.294-0.245-0.632-0.245-1.013 0-0.386 0.083-0.725 0.249-1.017 0.166-0.294 0.395-0.524 0.686-0.69s0.625-0.249 0.999-0.249c0.382 0 0.712 0.083 0.992 0.249s0.495 0.393 0.647 0.683c0.152 0.287 0.228 0.614 0.228 0.981 0 0.038-0.001 0.088-0.004 0.149s-0.006 0.103-0.011 0.124h-3.445zM36.849 16l-1.056-3.776h0.537l0.999 3.509h-0.11l0.661-3.509h0.629l-0.814 3.776h-0.846zM34.296 16l-0.821-3.776h0.629l0.668 3.509h-0.11l0.988-3.509h0.537l-1.042 3.776h-0.85zM40.304 16.071c-0.287 0-0.538-0.045-0.754-0.135-0.213-0.090-0.379-0.219-0.498-0.388-0.119-0.171-0.178-0.375-0.178-0.612 0-0.247 0.064-0.452 0.192-0.615 0.128-0.166 0.308-0.295 0.54-0.388s0.503-0.154 0.811-0.185c0.465-0.047 0.795-0.094 0.992-0.139 0.197-0.047 0.295-0.123 0.295-0.228 0-0.002 0-0.004 0-0.004 0-0.002 0-0.005 0-0.007 0-0.218-0.089-0.38-0.267-0.487-0.178-0.109-0.435-0.164-0.772-0.164-0.351 0-0.623 0.062-0.818 0.185-0.194 0.121-0.292 0.318-0.292 0.59h-0.597c0-0.282 0.072-0.521 0.217-0.718 0.145-0.199 0.345-0.351 0.601-0.455 0.258-0.104 0.556-0.156 0.892-0.156 0.308 0 0.585 0.047 0.832 0.142 0.249 0.092 0.446 0.231 0.59 0.416 0.147 0.183 0.22 0.409 0.22 0.679 0 0.050 0 0.1 0 0.149 0 0.047 0 0.096 0 0.146v1.589c0 0.083 0.004 0.164 0.011 0.242s0.019 0.147 0.036 0.206c0.021 0.071 0.045 0.129 0.071 0.174 0.026 0.043 0.047 0.072 0.064 0.089h-0.608c-0.012-0.012-0.030-0.039-0.053-0.082-0.024-0.045-0.046-0.097-0.068-0.156-0.017-0.047-0.030-0.107-0.039-0.178-0.009-0.073-0.014-0.149-0.014-0.228l0.1 0.068c-0.073 0.128-0.181 0.241-0.324 0.338-0.14 0.097-0.309 0.173-0.508 0.228s-0.424 0.082-0.676 0.082zM40.4 15.527c0.244 0 0.465-0.037 0.661-0.11 0.197-0.076 0.353-0.187 0.469-0.334s0.174-0.329 0.174-0.548v-0.75l0.135 0.228c-0.152 0.059-0.341 0.108-0.569 0.146-0.225 0.036-0.461 0.065-0.708 0.089-0.358 0.033-0.628 0.096-0.811 0.188-0.18 0.092-0.27 0.248-0.27 0.466 0 0.206 0.075 0.363 0.224 0.469 0.149 0.104 0.38 0.156 0.693 0.156zM44.494 16.057c-0.116 0-0.23-0.013-0.341-0.039s-0.212-0.072-0.302-0.139c-0.088-0.069-0.158-0.165-0.21-0.288-0.052-0.126-0.078-0.287-0.078-0.484 0-0.050 0-0.101 0-0.153 0-0.055 0-0.111 0-0.171v-2.027h-0.921v-0.533h0.59c0.081 0 0.143-0.002 0.188-0.007 0.045-0.007 0.077-0.023 0.096-0.046 0.021-0.026 0.034-0.065 0.039-0.117 0.005-0.055 0.007-0.129 0.007-0.224v-0.857h0.608v1.252h1.18v0.533h-1.18v1.831c0 0.052 0 0.103 0 0.153s0 0.096 0 0.139c0 0.201 0.024 0.359 0.071 0.473 0.050 0.114 0.16 0.171 0.331 0.171 0.069 0 0.134-0.006 0.196-0.018s0.108-0.024 0.139-0.036v0.526c-0.040 0.014-0.097 0.027-0.171 0.039-0.071 0.014-0.152 0.021-0.242 0.021zM47.579 16.071c-0.36 0-0.687-0.078-0.981-0.235-0.294-0.159-0.527-0.385-0.7-0.679-0.171-0.294-0.256-0.644-0.256-1.049s0.085-0.753 0.256-1.042c0.173-0.292 0.407-0.514 0.7-0.668s0.621-0.231 0.981-0.231c0.275 0 0.52 0.043 0.736 0.128 0.216 0.083 0.398 0.194 0.548 0.334s0.263 0.294 0.341 0.462c0.081 0.166 0.121 0.332 0.121 0.498 0 0.002 0 0.006 0 0.011s0 0.009 0 0.014h-0.601c0-0.012-0.001-0.025-0.004-0.039-0.002-0.017-0.005-0.033-0.007-0.050-0.019-0.159-0.079-0.297-0.181-0.416-0.102-0.121-0.235-0.216-0.398-0.284s-0.35-0.103-0.558-0.103c-0.235 0-0.453 0.051-0.654 0.153-0.199 0.1-0.36 0.252-0.484 0.459-0.121 0.204-0.181 0.462-0.181 0.775 0 0.311 0.060 0.57 0.181 0.779s0.281 0.366 0.48 0.473c0.201 0.104 0.421 0.156 0.658 0.156 0.256 0 0.467-0.040 0.633-0.121s0.29-0.187 0.373-0.32c0.085-0.135 0.133-0.28 0.142-0.434h0.601c0 0.171-0.038 0.341-0.114 0.512-0.076 0.168-0.187 0.322-0.334 0.462-0.147 0.137-0.329 0.248-0.548 0.331-0.216 0.083-0.466 0.124-0.75 0.124zM52.759 16v-1.404c0-0.066 0-0.145 0-0.235 0-0.092 0-0.185 0-0.277 0-0.095 0-0.175 0-0.242 0-0.363-0.078-0.636-0.235-0.821-0.154-0.185-0.399-0.277-0.736-0.277-0.225 0-0.423 0.044-0.594 0.132-0.168 0.088-0.3 0.207-0.395 0.359s-0.142 0.324-0.142 0.516l-0.384-0.117c0-0.27 0.070-0.516 0.21-0.736 0.142-0.223 0.335-0.399 0.58-0.53 0.247-0.133 0.525-0.199 0.836-0.199 0.453 0 0.809 0.136 1.070 0.409 0.263 0.273 0.395 0.649 0.395 1.131 0 0.126 0 0.27 0 0.434s0 0.335 0 0.516v1.344h-0.604zM50.053 16v-5.557h0.604v5.557h-0.604zM55.644 16.071c-0.228 0-0.439-0.024-0.633-0.071-0.192-0.050-0.36-0.121-0.505-0.213-0.142-0.095-0.254-0.211-0.334-0.348-0.078-0.137-0.117-0.295-0.117-0.473 0-0.019 0-0.038 0-0.057 0-0.021 0-0.039 0-0.053h0.608c0 0.014 0 0.026 0 0.036s0 0.024 0 0.043c0 0.192 0.089 0.339 0.267 0.441 0.178 0.1 0.421 0.149 0.729 0.149 0.19 0 0.359-0.019 0.508-0.057s0.267-0.096 0.352-0.174c0.088-0.078 0.132-0.177 0.132-0.295 0-0.197-0.092-0.337-0.277-0.42-0.183-0.085-0.456-0.159-0.821-0.22-0.192-0.033-0.375-0.076-0.548-0.128-0.173-0.055-0.327-0.124-0.462-0.21-0.133-0.085-0.238-0.191-0.316-0.316-0.076-0.128-0.114-0.281-0.114-0.459 0-0.23 0.068-0.424 0.203-0.583 0.137-0.161 0.322-0.283 0.555-0.366 0.232-0.085 0.491-0.128 0.775-0.128 0.275 0 0.529 0.044 0.761 0.132s0.418 0.216 0.558 0.384c0.142 0.166 0.213 0.371 0.213 0.615 0 0.009 0 0.021 0 0.036 0 0.012 0 0.024 0 0.036h-0.604c0-0.012 0-0.021 0-0.028s0-0.015 0-0.025c0-0.137-0.044-0.25-0.132-0.338-0.088-0.090-0.201-0.156-0.341-0.199-0.14-0.045-0.289-0.068-0.448-0.068-0.149 0-0.296 0.017-0.441 0.050-0.145 0.031-0.264 0.083-0.359 0.156s-0.142 0.174-0.142 0.302c0 0.128 0.044 0.231 0.132 0.309 0.090 0.076 0.216 0.139 0.377 0.188 0.164 0.047 0.356 0.091 0.576 0.132 0.197 0.036 0.383 0.081 0.558 0.135 0.175 0.052 0.329 0.12 0.462 0.203 0.135 0.083 0.241 0.188 0.316 0.316 0.078 0.126 0.117 0.28 0.117 0.462 0 0.185-0.043 0.346-0.128 0.484-0.083 0.137-0.199 0.252-0.348 0.345-0.147 0.092-0.318 0.161-0.512 0.206-0.192 0.047-0.397 0.071-0.615 0.071zM57.974 17.554v-5.33h0.604v5.33h-0.604zM59.819 16.071c-0.292 0-0.564-0.071-0.818-0.213-0.254-0.145-0.46-0.343-0.619-0.594-0.156-0.251-0.235-0.538-0.235-0.86 0-0.007 0-0.013 0-0.018s0-0.011 0-0.018l0.434-0.011c0 0.005 0 0.011 0 0.018 0 0.005 0 0.009 0 0.014 0 0.204 0.053 0.39 0.16 0.558 0.109 0.168 0.251 0.302 0.427 0.402s0.364 0.149 0.565 0.149c0.334 0 0.612-0.114 0.832-0.341 0.223-0.23 0.334-0.58 0.334-1.049 0-0.472-0.11-0.82-0.331-1.045-0.22-0.228-0.499-0.341-0.836-0.341-0.201 0-0.39 0.050-0.565 0.149-0.175 0.097-0.318 0.229-0.427 0.395-0.107 0.166-0.16 0.352-0.16 0.558l-0.434-0.014c0-0.325 0.078-0.61 0.235-0.857 0.159-0.247 0.365-0.439 0.619-0.576 0.254-0.14 0.526-0.21 0.818-0.21 0.306 0 0.588 0.076 0.846 0.228 0.258 0.149 0.466 0.369 0.622 0.658s0.235 0.641 0.235 1.056c0 0.422-0.077 0.78-0.231 1.074-0.154 0.292-0.36 0.513-0.619 0.665-0.258 0.149-0.543 0.224-0.853 0.224zM64.041 16.068c-0.379 0-0.715-0.084-1.006-0.252-0.289-0.171-0.517-0.403-0.683-0.697-0.164-0.296-0.245-0.633-0.245-1.010s0.082-0.711 0.245-1.003c0.166-0.292 0.393-0.52 0.683-0.686 0.292-0.166 0.627-0.249 1.006-0.249s0.713 0.083 1.003 0.249c0.292 0.166 0.519 0.395 0.683 0.686 0.166 0.292 0.249 0.626 0.249 1.003s-0.083 0.713-0.249 1.010c-0.164 0.294-0.391 0.526-0.683 0.697-0.289 0.168-0.623 0.252-1.003 0.252zM64.041 15.513c0.261 0 0.491-0.058 0.69-0.174s0.354-0.28 0.466-0.491c0.114-0.211 0.171-0.457 0.171-0.74s-0.057-0.526-0.171-0.732c-0.111-0.209-0.267-0.369-0.466-0.48-0.199-0.114-0.429-0.171-0.69-0.171-0.258 0-0.488 0.057-0.69 0.171-0.199 0.111-0.356 0.271-0.469 0.48-0.111 0.206-0.167 0.45-0.167 0.732s0.056 0.529 0.167 0.74c0.114 0.211 0.27 0.375 0.469 0.491 0.201 0.116 0.431 0.174 0.69 0.174zM68.123 16.057c-0.116 0-0.23-0.013-0.341-0.039s-0.212-0.072-0.302-0.139c-0.088-0.069-0.158-0.165-0.21-0.288-0.052-0.126-0.078-0.287-0.078-0.484 0-0.050 0-0.101 0-0.153 0-0.055 0-0.111 0-0.171v-2.027h-0.921v-0.533h0.59c0.081 0 0.143-0.002 0.188-0.007 0.045-0.007 0.077-0.023 0.096-0.046 0.021-0.026 0.034-0.065 0.039-0.117 0.005-0.055 0.007-0.129 0.007-0.224v-0.857h0.608v1.252h1.18v0.533h-1.18v1.831c0 0.052 0 0.103 0 0.153s0 0.096 0 0.139c0 0.201 0.024 0.359 0.071 0.473 0.050 0.114 0.16 0.171 0.331 0.171 0.069 0 0.134-0.006 0.196-0.018s0.108-0.024 0.139-0.036v0.526c-0.040 0.014-0.097 0.027-0.171 0.039-0.071 0.014-0.152 0.021-0.242 0.021z"></path>
</symbol>
<symbol id="icon-x_2020" viewBox="0 0 32 32">
<path fill="none" stroke="#fff" style="stroke: var(--color1, #fff)" stroke-linejoin="round" stroke-linecap="round" stroke-miterlimit="4" stroke-width="2.0800" d="M24 8l-16 16"></path>
<path fill="none" stroke="#fff" style="stroke: var(--color1, #fff)" stroke-linejoin="round" stroke-linecap="round" stroke-miterlimit="4" stroke-width="2.0800" d="M8 8l16 16"></path>
</symbol>
<symbol id="icon-x_2424" viewBox="0 0 32 32">
<path fill="#141414" stroke="#141414" style="" stroke-linejoin="round" stroke-linecap="round" stroke-miterlimit="4" stroke-width="1.7333" d="M24 8l-16 16"></path>
<path fill="#141414" stroke="#141414" style="" stroke-linejoin="round" stroke-linecap="round" stroke-miterlimit="4" stroke-width="1.7333" d="M8 8l16 16"></path>
</symbol>
<symbol id="icon-youtube_2424" viewBox="0 0 32 32">
<path fill="" style="fill: var(--color1, #fff)" opacity="0.8" d="M24.24 6c-1.36-0.080-4.16-0.16-8.4-0.16h-0.56c-4.080 0-6.8 0.080-8.16 0.24-1.84 0.16-3.12 0.64-3.84 1.28-0.64 0.56-1.12 1.6-1.28 2.96-0.080 0.88-0.16 2.72-0.16 5.52v0.4c0 2.64 0.080 4.48 0.24 5.36 0.24 1.28 0.64 2.24 1.44 2.8 0.8 0.64 2.16 1.040 4.080 1.2 1.36 0.080 4.16 0.16 8.4 0.16h0.56c4.080 0 6.8-0.080 8.16-0.24 1.84-0.16 3.12-0.64 3.84-1.28 0.64-0.56 1.12-1.6 1.28-2.96 0.080-0.88 0.16-2.72 0.16-5.52v-0.4c0-2.64-0.080-4.48-0.24-5.36-0.24-1.28-0.64-2.24-1.44-2.8-0.8-0.64-2.16-1.040-4.080-1.2zM21.12 15.84l-8.8 5.28v-10.56l8.8 5.28z"></path>
</symbol>
<symbol id="icon-youtube_2828" viewBox="0 0 32 32">
<path fill="" style="fill: var(--color1, #fff)" opacity="0.8" d="M24.24 6c-1.36-0.080-4.16-0.16-8.4-0.16h-0.56c-4.080 0-6.8 0.080-8.16 0.24-1.84 0.16-3.12 0.64-3.84 1.28-0.64 0.56-1.12 1.6-1.28 2.96-0.080 0.88-0.16 2.72-0.16 5.52v0.4c0 2.64 0.080 4.48 0.24 5.36 0.24 1.28 0.64 2.24 1.44 2.8 0.8 0.64 2.16 1.040 4.080 1.2 1.36 0.080 4.16 0.16 8.4 0.16h0.56c4.080 0 6.8-0.080 8.16-0.24 1.84-0.16 3.12-0.64 3.84-1.28 0.64-0.56 1.12-1.6 1.28-2.96 0.080-0.88 0.16-2.72 0.16-5.52v-0.4c0-2.64-0.080-4.48-0.24-5.36-0.24-1.28-0.64-2.24-1.44-2.8-0.8-0.64-2.16-1.040-4.080-1.2zM21.12 15.84l-8.8 5.28v-10.56l8.8 5.28z"></path>
</symbol>
</defs>
</svg>
